# xmcd CD database file
#
# Track frame offsets:
#	150
#	11072
#	33247
#
# Disc length: 826 seconds
#
# Revision: 0
# Processed by: cddbd v1.5.1PL0 Copyright (c) Steve Scherf et al.
# Submitted via: CDex 1.51
#
DISCID=19033803
DTITLE=カヒミ・カリィ - One Thousand 20th Century Chairs
DYEAR=1900
DGENRE=J-POP
TTITLE0=One Thousand 20th Century Chairs
TTITLE1=The Harder They Come (Crue-L Entertainment Mix)
TTITLE2=Harmony Korine (Dub)
EXTD=
EXTT0=
EXTT1=
EXTT2=
PLAYORDER=
